<mxfile host="app.diagrams.net" modified="2023-11-24T19:56:28.225Z" agent="Mozilla/5.0 (Windows NT 10.0; Win64; x64) AppleWebKit/537.36 (KHTML, like Gecko) Chrome/119.0.0.0 Safari/537.36" version="22.1.4" etag="XUgQvRNoRXq9h9Ye_4ZB" type="github">
  <diagram name="Page-1" id="pfJI5Zej25W6J6jr7NSG">
    <mxGraphModel>
      <root>
        <mxCell id="0" />
        <mxCell id="1" parent="0" />
      </root>
    </mxGraphModel>
  </diagram>
</mxfile>
